<svg xmlns="http://www.w3.org/2000/svg" viewBox="0 0 508 508"><path d="M.108 352.536c0 66.794 54.144 120.938 120.937 120.938 66.794 0 120.938-54.144 120.938-120.938s-54.144-120.937-120.938-120.937c-13.727 0-26.867 2.393-39.168 6.61 27.216-156.091 148.937-256.752 36.102-173.906-125.117 91.867-118.005 284.537-117.865 288.068l-.006.165zM266.169 352.536c0 66.794 54.144 120.938 120.938 120.938s120.938-54.144 120.938-120.938-54.145-120.937-120.939-120.937c-13.728 0-26.867 2.393-39.168 6.61 27.216-156.091 148.937-256.752 36.102-173.906-125.117 91.867-118.006 284.537-117.865 288.068l-.006.165z"/></svg>